#!OML:ASF I:\golf\golf\golf 2\Subject 1\2002-09-07\Subject1.ASF
:FULLY-SPECIFIED
:DEGREES
16
root -8.83056 17.8897 5.71113 -24.1394 83.4124 -37.7291
lowerback 5.50276 1.03695 0.210514
upperback 5.50369 1.52757 4.32963
thorax 2.48657 0.77429 4.31561
lowerneck -11.1179 1.30551 3.78606
upperneck 44.0117 6.26463 -5.3913
head 18.9672 3.18678 -1.88814
rclavicle -1.03368e-014 -3.4191e-014
rhumerus -20.7031 44.5823 -100.025
rradius 56.2533
rwrist -65.5893
rhand -39.4959 -17.2172
rfingers 7.12502
rthumb -12.4818 -46.8244
lclavicle -1.03368e-014 -3.4191e-014
lhumerus -18.1937 -48.2805 106.856
lradius 54.1138
lwrist 66.4223
lhand -13.6259 66.3718
lfingers 7.12502
lthumb -167.51 84.0214
rfemur -28.7555 -0.218591 15.5097
rtibia 28.8349
rfoot -8.64571 -3.13916
rtoes -1.96348
lfemur -26.6835 4.77014 -9.35535
ltibia 29.1312
lfoot -12.3235 -2.54907
ltoes -16.0238
17
root -8.82937 17.8927 5.71043 -23.899 83.4196 -37.4729
lowerback 5.51721 0.997953 0.118463
upperback 5.50502 1.47305 4.35701
thorax 2.48145 0.743671 4.39815
lowerneck -11.1091 1.23607 3.65397
upperneck 43.9895 6.23424 -5.49048
head 18.9485 3.14004 -1.91764
rclavicle -1.98785e-015 3.18055e-015
rhumerus -20.7059 44.7346 -100.051
rradius 56.2062
rwrist -65.5348
rhand -39.4434 -17.277
rfingers 7.12502
rthumb -12.4312 -46.8873
lclavicle -1.98785e-015 3.18055e-015
lhumerus -18.1833 -48.1781 106.861
lradius 54.0934
lwrist 66.4165
lhand -13.7345 66.4705
lfingers 7.12502
lthumb -167.615 83.9164
rfemur -28.7079 -0.236767 15.4844
rtibia 28.7838
rfoot -8.63169 -3.13312
rtoes -1.71795
lfemur -26.6418 4.71859 -9.383
ltibia 29.1126
lfoot -12.2993 -2.47015
ltoes -16.0214
18
root -8.82725 17.8931 5.71037 -23.7143 83.3784 -37.2759
lowerback 5.51419 0.980296 0.0831878
upperback 5.50513 1.44814 4.36874
thorax 2.48419 0.729784 4.43143
lowerneck -11.0956 1.17854 3.53585
upperneck 43.9787 6.19669 -5.5345
head 18.9325 3.09997 -1.92438
rclavicle 7.95139e-016 4.29375e-014
rhumerus -20.7332 44.8192 -100.101
rradius 56.1839
rwrist -65.4612
rhand -39.512 -17.3185
rfingers 7.12502
rthumb -12.4973 -46.9248
lclavicle 7.95139e-016 4.29375e-014
lhumerus -18.1924 -48.0721 106.865
lradius 54.0141
lwrist 66.2622
lhand -13.6169 66.1843
lfingers 7.12502
lthumb -167.501 84.2095
rfemur -28.6709 -0.245831 15.5024
rtibia 28.7441
rfoot -8.59565 -3.09155
rtoes -2.01888
lfemur -26.5911 4.74467 -9.38632
ltibia 29.0896
lfoot -12.2951 -2.41885
ltoes -16.2634
19
root -8.82549 17.8935 5.71131 -23.0918 83.3645 -36.6615
lowerback 5.49412 0.99299 0.0253953
upperback 5.49663 1.46161 4.34159
thorax 2.48477 0.734526 4.43546
lowerneck -11.1003 1.11049 3.46927
upperneck 43.9964 6.11482 -5.5382
head 18.9354 3.05659 -1.92943
rclavicle -3.18055e-015 -1.66979e-014
rhumerus -20.7489 44.82 -100.126
rradius 56.1714
rwrist -65.4263
rhand -39.5695 -17.3127
rfingers 7.12502
rthumb -12.5527 -46.9156
lclavicle -3.18055e-015 -1.66979e-014
lhumerus -18.1919 -48.0667 106.884
lradius 53.9878
lwrist 66.316
lhand -13.8438 66.4673
lfingers 7.12502
lthumb -167.72 83.9133
rfemur -28.6673 -0.204184 15.4416
rtibia 28.7129
rfoot -8.572 -3.12712
rtoes -2.03611
lfemur -26.5765 4.81088 -9.46372
ltibia 29.0725
lfoot -12.2659 -2.39737
ltoes -16.8444
20
root -8.8247 17.8955 5.71025 -22.4871 83.3885 -36.1062
lowerback 5.43158 0.966381 -0.0880454
upperback 5.49044 1.41996 4.34822
thorax 2.51401 0.709024 4.50952
lowerneck -11.1229 1.07003 3.36254
upperneck 44.0105 6.0896 -5.55158
head 18.9456 3.02625 -1.9212
rclavicle -1.74931e-014 -2.54444e-014
rhumerus -20.722 44.9471 -100.114
rradius 56.1127
rwrist -65.4206
rhand -39.5515 -17.3054
rfingers 7.12502
rthumb -12.5354 -46.9094
lclavicle -1.74931e-014 -2.54444e-014
lhumerus -18.0989 -47.9675 106.865
lradius 53.948
lwrist 66.3337
lhand -13.9945 66.8377
lfingers 7.12502
lthumb -167.866 83.5342
rfemur -28.7126 -0.137429 15.3401
rtibia 28.6915
rfoot -8.59783 -3.19549
rtoes -1.68721
lfemur -26.6226 4.83239 -9.55836
ltibia 29.0605
lfoot -12.2369 -2.38417
ltoes -17.2879
21
root -8.82416 17.8983 5.70773 -22.6727 83.3771 -36.3625
lowerback 5.33519 0.915682 -0.11203
upperback 5.50381 1.34922 4.38941
thorax 2.58623 0.67129 4.5713
lowerneck -11.1939 1.04002 3.27778
upperneck 44.0217 6.08852 -5.60964
head 18.9738 3.00118 -1.93409
rclavicle -3.57812e-015 1.66979e-014
rhumerus -20.6425 45.1148 -100.073
rradius 56.0333
rwrist -65.3652
rhand -39.4138 -17.2675
rfingers 7.12502
rthumb -12.4026 -46.8796
lclavicle -3.57812e-015 1.66979e-014
lhumerus -17.9464 -47.7798 106.782
lradius 53.8508
lwrist 66.1507
lhand -13.9141 66.7333
lfingers 7.12502
lthumb -167.788 83.6432
rfemur -28.7827 -0.134558 15.3684
rtibia 28.6712
rfoot -8.54638 -3.18425
rtoes -2.31838
lfemur -26.6991 4.87627 -9.54133
ltibia 29.0499
lfoot -12.239 -2.4403
ltoes -17.1794
